<svg xmlns="http://www.w3.org/2000/svg" width="32" height="32" viewBox="0 0 32 32"><defs><style>.a{fill:#9ec6d9;}</style></defs><path class="a" d="M25.94,0H6.06A6.06,6.06,0,0,0,0,6.06V25.94A6.06,6.06,0,0,0,6.06,32H25.94A6.06,6.06,0,0,0,32,25.94V6.06A6.06,6.06,0,0,0,25.94,0ZM13.67,22.1H6.39a.92.92,0,0,1-.92-.91V10.81a.92.92,0,0,1,.92-.91h7.05c.5,0,.92.3.92.66s-.42.67-.92.67H8.74a.91.91,0,0,0-.91.91v2a.92.92,0,0,0,.91.92h3.61c.51,0,.92.29.92.65s-.41.66-.92.66H8.74a.91.91,0,0,0-.91.91v2.61a.91.91,0,0,0,.91.91h4.93c.5,0,.91.29.91.65S14.17,22.1,13.67,22.1Zm12.25-.66a7.37,7.37,0,0,1-3.28.86c-3.46,0-6.32-1.94-6.32-6.27s2.93-6.33,6.4-6.33a6.05,6.05,0,0,1,2.9.68c.61.36.78.87.4,1.13a1.79,1.79,0,0,1-1.76-.22A2.91,2.91,0,0,0,22.8,11c-2.13,0-4.05,1.5-4.05,4.93s1.79,5,4.12,5a3.3,3.3,0,0,0,1.69-.39,1.86,1.86,0,0,1,1.77-.23C26.71,20.6,26.52,21.09,25.92,21.44Z"/></svg>